<svg viewBox="0 0 320 220" xmlns="http://www.w3.org/2000/svg"><rect width="320" height="220" rx="28" fill="#E0F2FE"/><path d="M58 126L256 54C267 50 276 61 267 70L204 133L224 184L206 193L174 151L120 181L110 168L151 127L88 102L98 88L166 102L237 48" fill="#FFFFFF"/><path d="M58 126L256 54C267 50 276 61 267 70L204 133L224 184L206 193L174 151L120 181L110 168L151 127L88 102L98 88L166 102" stroke="#0F172A" stroke-width="8" stroke-linejoin="round" stroke-linecap="round"/><path d="M204 133L174 151" stroke="#1D4ED8" stroke-width="8" stroke-linecap="round"/></svg>