<svg width="160" height="120" viewBox="0 0 160 120" fill="none" xmlns="http://www.w3.org/2000/svg">
  <circle cx="80" cy="60" r="45" fill="white" stroke="#183A68" stroke-width="6"/>
  <path d="M39 52H121V97H39V52Z" fill="white" stroke="#183A68" stroke-width="6" stroke-linejoin="round"/>
  <path d="M49 25H111L123 52H37L49 25Z" fill="white" stroke="#183A68" stroke-width="6" stroke-linejoin="round"/>
  <path d="M43 52C43 64 59 64 59 52M59 52C59 64 75 64 75 52M75 52C75 64 91 64 91 52M91 52C91 64 107 64 107 52M107 52C107 64 123 64 123 52" stroke="#183A68" stroke-width="6" stroke-linecap="round"/>
  <rect x="56" y="68" width="25" height="29" rx="2" fill="#1E66D0"/>
  <rect x="90" y="68" width="24" height="18" rx="2" fill="#1E66D0"/>
  <path d="M69 26V52M91 26V52" stroke="#183A68" stroke-width="5" stroke-linecap="round"/>
</svg>
