<svg width="160" height="120" viewBox="0 0 160 120" fill="none" xmlns="http://www.w3.org/2000/svg">
  <circle cx="80" cy="60" r="43" fill="white" stroke="#183A68" stroke-width="6"/>
  <path d="M47 54H113V94H47V54Z" fill="white" stroke="#183A68" stroke-width="6" stroke-linejoin="round"/>
  <path d="M54 31H106L116 54H44L54 31Z" fill="white" stroke="#183A68" stroke-width="6" stroke-linejoin="round"/>
  <path d="M48 54C48 63 61 63 61 54M61 54C61 63 74 63 74 54M74 54C74 63 87 63 87 54M87 54C87 63 100 63 100 54M100 54C100 63 113 63 113 54" stroke="#183A68" stroke-width="6" stroke-linecap="round"/>
  <rect x="58" y="69" width="21" height="25" rx="2" fill="#1E66D0"/>
  <rect x="88" y="69" width="20" height="16" rx="2" fill="#1E66D0"/>
  <path d="M70 32V53M90 32V53" stroke="#183A68" stroke-width="5" stroke-linecap="round"/>
</svg>
