<svg width="160" height="120" viewBox="0 0 160 120" fill="none" xmlns="http://www.w3.org/2000/svg">
  <circle cx="80" cy="60" r="45" fill="white" stroke="#183A68" stroke-width="6"/>
  <path d="M37 51H123V98H37V51Z" fill="white" stroke="#183A68" stroke-width="6" stroke-linejoin="round"/>
  <path d="M48 22H112L126 51H34L48 22Z" fill="white" stroke="#183A68" stroke-width="6" stroke-linejoin="round"/>
  <path d="M39 51C39 65 57 65 57 51M57 51C57 65 75 65 75 51M75 51C75 65 93 65 93 51M93 51C93 65 111 65 111 51M111 51C111 65 129 65 129 51" stroke="#183A68" stroke-width="6" stroke-linecap="round"/>
  <rect x="55" y="68" width="28" height="30" rx="2" fill="#004DBF"/>
  <rect x="91" y="68" width="27" height="19" rx="2" fill="#004DBF"/>
  <path d="M68 23V51M92 23V51" stroke="#183A68" stroke-width="5" stroke-linecap="round"/>
</svg>
