<svg width="160" height="120" viewBox="0 0 160 120" fill="none" xmlns="http://www.w3.org/2000/svg">
  <circle cx="80" cy="60" r="44" fill="white" stroke="#183A68" stroke-width="6"/>
  <path d="M43 53H117V96H43V53Z" fill="white" stroke="#183A68" stroke-width="6" stroke-linejoin="round"/>
  <path d="M51 28H109L119 53H41L51 28Z" fill="white" stroke="#183A68" stroke-width="6" stroke-linejoin="round"/>
  <path d="M46 53C46 63 60 63 60 53M60 53C60 63 74 63 74 53M74 53C74 63 88 63 88 53M88 53C88 63 102 63 102 53M102 53C102 63 116 63 116 53" stroke="#183A68" stroke-width="6" stroke-linecap="round"/>
  <rect x="57" y="69" width="23" height="27" rx="2" fill="#1E66D0"/>
  <rect x="89" y="69" width="22" height="17" rx="2" fill="#1E66D0"/>
  <path d="M70 29V53M90 29V53" stroke="#183A68" stroke-width="5" stroke-linecap="round"/>
</svg>
