<svg width="160" height="120" viewBox="0 0 160 120" fill="none" xmlns="http://www.w3.org/2000/svg">
  <circle cx="80" cy="60" r="46" fill="white" stroke="#183A68" stroke-width="6"/>
  <path d="M48 56h64v36H48V56z" fill="white" stroke="#183A68" stroke-width="6" stroke-linejoin="round"/>
  <path d="M55 36h50l8 20H47l8-20z" fill="white" stroke="#183A68" stroke-width="6" stroke-linejoin="round"/>
  <path d="M51 56c0 8 12 8 12 0M63 56c0 8 12 8 12 0M75 56c0 8 12 8 12 0M87 56c0 8 12 8 12 0M99 56c0 8 12 8 12 0" stroke="#183A68" stroke-width="6" stroke-linecap="round"/>
  <rect x="60" y="70" width="18" height="22" rx="2" fill="#1E66D0"/>
  <rect x="86" y="70" width="18" height="14" rx="2" fill="#1E66D0"/>
  <path d="M72 36v20M88 36v20" stroke="#183A68" stroke-width="5" stroke-linecap="round"/>
</svg>
