<svg viewBox="0 0 420 260" xmlns="http://www.w3.org/2000/svg"><rect width="420" height="260" rx="30" fill="#0B1220"/><path d="M84 151L113 88C119 75 132 68 147 68H273C288 68 301 75 307 88L336 151V205H304C304 220 292 232 277 232C262 232 250 220 250 205H170C170 220 158 232 143 232C128 232 116 220 116 205H84V151Z" fill="#F8FAFC"/><path d="M134 96H286L306 147H114L134 96Z" fill="#1D4ED8"/><circle cx="143" cy="205" r="17" fill="#0B1220"/><circle cx="277" cy="205" r="17" fill="#0B1220"/><path d="M154 42H266" stroke="#F59E0B" stroke-width="13" stroke-linecap="round"/></svg>
