<svg viewBox="0 0 320 220" xmlns="http://www.w3.org/2000/svg"><rect width="320" height="220" rx="28" fill="#DCFCE7"/><path d="M66 126L88 78C93 67 102 62 114 62H206C218 62 227 67 232 78L254 126V168H230C230 181 220 191 207 191C194 191 184 181 184 168H136C136 181 126 191 113 191C100 191 90 181 90 168H66V126Z" fill="#FFFFFF"/><path d="M99 86H221L236 123H84L99 86Z" fill="#1D4ED8"/><circle cx="113" cy="168" r="14" fill="#0F172A"/><circle cx="207" cy="168" r="14" fill="#0F172A"/><path d="M118 42H202" stroke="#FBBF24" stroke-width="12" stroke-linecap="round"/></svg>